HIERARCHY
ROOT Hips
{
 OFFSET 0.000000 0.000000 0.000000
 CHANNELS 6 Xposition Yposition Zposition Yrotation Xrotation Zrotation
 JOINT Chest
 {
  OFFSET 0.000000 10.080317 -0.001081
  CHANNELS 3 Yrotation Xrotation Zrotation
  JOINT Chest2
  {
   OFFSET 0.000000 11.096852 0.001963
   CHANNELS 3 Yrotation Xrotation Zrotation
   JOINT Chest3
   {
    OFFSET 0.000000 10.026525 0.000000
    CHANNELS 3 Yrotation Xrotation Zrotation
    JOINT Chest4
    {
     OFFSET 0.000000 10.026525 0.000000
     CHANNELS 3 Yrotation Xrotation Zrotation
     JOINT Neck
     {
      OFFSET 0.000000 14.108171 0.000000
      CHANNELS 3 Yrotation Xrotation Zrotation
      JOINT Head
      {
       OFFSET 0.000000 9.333493 0.004668
       CHANNELS 3 Yrotation Xrotation Zrotation
       End Site
       {
        OFFSET 0.000000 17.851786 0.002438
       }
      }
     }
     JOINT RightCollar
     {
      OFFSET -3.071622 7.873185 0.000000
      CHANNELS 3 Yrotation Xrotation Zrotation
      JOINT RightShoulder
      {
       OFFSET -14.378659 0.000000 0.000000
       CHANNELS 3 Yrotation Xrotation Zrotation
       JOINT RightElbow
       {
        OFFSET -30.778728 0.000000 0.000000
        CHANNELS 3 Yrotation Xrotation Zrotation
        JOINT RightWrist
        {
         OFFSET -25.164217 0.000000 0.000000
         CHANNELS 3 Yrotation Xrotation Zrotation
         End Site
         {
          OFFSET -18.796788 0.000000 0.000000
         }
        }
       }
      }
     }
     JOINT LeftCollar
     {
      OFFSET 3.071622 7.873185 0.000000
      CHANNELS 3 Yrotation Xrotation Zrotation
      JOINT LeftShoulder
      {
       OFFSET 14.378659 0.000000 0.000000
       CHANNELS 3 Yrotation Xrotation Zrotation
       JOINT LeftElbow
       {
        OFFSET 30.778728 0.000000 0.000000
        CHANNELS 3 Yrotation Xrotation Zrotation
        JOINT LeftWrist
        {
         OFFSET 25.164217 0.000000 0.000000
         CHANNELS 3 Yrotation Xrotation Zrotation
         End Site
         {
          OFFSET 18.796788 0.000000 0.000000
         }
        }
       }
      }
     }
    }
   }
  }
 }
 JOINT RightHip
 {
  OFFSET -8.194923 0.005295 0.000540
  CHANNELS 3 Yrotation Xrotation Zrotation
  JOINT RightKnee
  {
   OFFSET 0.000000 -42.473320 -0.000511
   CHANNELS 3 Yrotation Xrotation Zrotation
   JOINT RightAnkle
   {
    OFFSET 0.000000 -41.474259 -0.000865
    CHANNELS 3 Yrotation Xrotation Zrotation
    JOINT RightToe
    {
     OFFSET 0.000000 -7.354994 16.712725
     CHANNELS 3 Yrotation Xrotation Zrotation
     End Site
     {
      OFFSET 0.000000 -1.553903 6.764158
     }
    }
   }
  }
 }
 JOINT LeftHip
 {
  OFFSET 8.194923 0.005295 0.000540
  CHANNELS 3 Yrotation Xrotation Zrotation
  JOINT LeftKnee
  {
   OFFSET 0.000000 -42.473320 -0.000511
   CHANNELS 3 Yrotation Xrotation Zrotation
   JOINT LeftAnkle
   {
    OFFSET 0.000000 -41.474259 -0.000865
    CHANNELS 3 Yrotation Xrotation Zrotation
    JOINT LeftToe
    {
     OFFSET 0.000000 -7.354994 16.712725
     CHANNELS 3 Yrotation Xrotation Zrotation
     End Site
     {
      OFFSET 0.000000 -1.553903 6.764158
     }
    }
   }
  }
 }
}
MOTION
Frames: 5
Frame Time: 0.016667
48.733041 82.857004 3.938248 123.485079 -9.122574 -9.070202 3.553588 15.083834 -0.696777 1.840851 6.828705 -0.135162 1.840851 6.828705 -0.135162 1.380516 5.121177 -0.121909 15.349200 12.678363 2.822508 27.979082 -11.734194 -0.849807 3.395561 -14.113047 1.329147 47.590353 -36.609938 33.960083 56.372150 10.867691 24.091917 4.035230 -3.886535 -28.178353 -25.464686 -0.854713 -3.069189 0.913048 -49.693044 -77.312693 -58.533566 -13.742317 -31.806403 -17.068563 4.793105 44.934185 7.290597 -11.679629 -7.301457 5.281502 38.173581 -3.206912 -0.332246 -19.244890 20.029360 0.656225 -0.906930 2.424848 11.408399 -28.185893 33.039311 3.068865 40.504011 -4.456284 9.614439 -7.566846 -10.413218 0.005937 -3.474405 3.767090
47.768937 82.429951 3.335566 122.395039 -8.365030 -9.860436 3.165070 15.482799 -0.822409 1.629765 6.923780 -0.278893 1.629765 6.923780 -0.278893 1.224005 5.192137 -0.227460 16.006202 12.312492 2.322960 29.483896 -12.185439 -2.113475 3.206569 -13.168214 3.305077 44.606339 -37.579591 39.017138 47.823695 14.541207 23.723873 1.734571 -4.076322 -27.848161 -25.619801 1.008131 -2.943094 0.048679 -48.375193 -79.372118 -48.362350 -13.275966 -31.897350 -18.448065 2.631998 43.390698 7.356671 -13.111872 -7.158880 5.888123 37.950132 -3.190959 -0.034948 -18.793271 20.346296 0.665218 -0.981500 2.298136 10.214589 -29.726753 34.366809 3.661965 42.912443 -5.571709 9.452562 -6.855903 -9.228190 0.190083 -4.277138 2.906442
46.884701 81.953991 2.769420 121.152540 -7.638218 -10.345980 2.933864 15.853886 -1.083532 1.440398 7.007154 -0.452867 1.440398 7.007154 -0.452867 1.084163 5.254338 -0.355816 16.547281 11.867415 1.802965 30.802088 -12.775668 -3.398100 3.424940 -12.463382 4.742158 42.135120 -37.595971 43.626936 38.156274 16.505189 21.081449 -1.532001 -4.579116 -27.277901 -25.666575 2.643190 -2.792339 -1.664025 -46.996271 -80.459082 -38.073275 -13.841802 -31.957656 -19.027948 -0.446363 41.070557 7.545643 -14.624761 -7.206240 6.683451 37.934390 -3.191836 0.161282 -18.583204 20.659003 0.614569 -0.933311 2.216072 9.695216 -31.286214 35.119058 4.280893 45.135478 -6.041883 9.335328 -6.430391 -8.265798 0.245060 -4.757688 2.126825
46.063149 81.447898 2.294875 120.036313 -6.792059 -10.760063 2.700467 16.125893 -1.364057 1.275459 7.087836 -0.597384 1.275459 7.087836 -0.597384 0.962331 5.314666 -0.462327 16.984302 11.420794 1.314831 31.921757 -13.378548 -4.593272 3.889418 -11.854197 5.724876 40.531322 -36.502926 46.994253 28.216538 15.118192 17.135647 -5.883497 -5.563902 -27.364108 -26.057677 4.213740 -2.588754 -4.764563 -44.972213 -80.832173 -29.652361 -15.035783 -31.126532 -18.863003 -3.496118 38.474371 7.667255 -16.242013 -7.235331 7.645749 38.062512 -3.092036 0.138131 -18.622000 20.825229 0.520873 -0.761175 2.203666 9.683368 -33.134797 35.379647 4.315266 47.130882 -6.304903 9.469363 -6.558221 -7.540541 0.220118 -4.699915 1.539026
45.278349 81.222190 1.854664 119.231815 -5.824004 -11.063302 2.015366 16.300252 -1.822729 1.068483 7.163241 -0.662346 1.068483 7.163241 -0.662346 0.808115 5.371302 -0.508694 17.462710 11.151418 0.824915 33.090051 -13.635244 -5.765323 4.651362 -10.840461 6.189563 39.192455 -35.354738 49.732530 20.182133 12.167689 13.261673 -11.459653 -6.638838 -26.872324 -26.000510 5.482508 -2.697949 -8.068335 -42.948600 -81.330073 -22.730232 -16.751853 -30.500669 -18.227802 -6.310207 36.331323 8.082844 -17.822717 -7.512828 8.010829 38.184139 -3.028560 0.090662 -18.280500 20.816956 0.579032 -0.956721 2.299729 9.250020 -35.149784 35.698293 4.041347 49.316950 -6.781148 9.912417 -7.804306 -7.052964 0.243600 -3.646629 1.134851
